<svg width="800" height="400" xmlns="http://www.w3.org/2000/svg">
  <!-- Background -->
  <rect width="800" height="400" fill="#f0f9ff" />
  
  <!-- Decorative elements -->
  <circle cx="150" cy="300" r="60" fill="#93c5fd" opacity="0.7" />
  <circle cx="650" cy="100" r="40" fill="#93c5fd" opacity="0.7" />
  <circle cx="400" cy="380" r="20" fill="#93c5fd" opacity="0.7" />
  
  <!-- Checklist icon -->
  <rect x="300" y="100" width="200" height="180" rx="5" fill="#f8fafc" stroke="#1e40af" stroke-width="3" />
  
  <!-- Checklist items -->
  <rect x="320" y="130" width="20" height="20" rx="3" fill="white" stroke="#1e40af" stroke-width="2" />
  <path d="M325 140 L335 150 L345 130" stroke="#1e40af" stroke-width="3" fill="none" />
  <rect x="350" y="130" width="120" height="8" rx="2" fill="#1e40af" opacity="0.7" />
  <rect x="350" y="145" width="80" height="5" rx="2" fill="#1e40af" opacity="0.3" />
  
  <rect x="320" y="170" width="20" height="20" rx="3" fill="white" stroke="#1e40af" stroke-width="2" />
  <path d="M325 180 L335 190 L345 170" stroke="#1e40af" stroke-width="3" fill="none" />
  <rect x="350" y="170" width="120" height="8" rx="2" fill="#1e40af" opacity="0.7" />
  <rect x="350" y="185" width="90" height="5" rx="2" fill="#1e40af" opacity="0.3" />
  
  <rect x="320" y="210" width="20" height="20" rx="3" fill="white" stroke="#1e40af" stroke-width="2" />
  <rect x="350" y="210" width="120" height="8" rx="2" fill="#1e40af" opacity="0.7" />
  <rect x="350" y="225" width="70" height="5" rx="2" fill="#1e40af" opacity="0.3" />
  
  <rect x="320" y="250" width="20" height="20" rx="3" fill="white" stroke="#1e40af" stroke-width="2" />
  <rect x="350" y="250" width="120" height="8" rx="2" fill="#1e40af" opacity="0.7" />
  <rect x="350" y="265" width="100" height="5" rx="2" fill="#1e40af" opacity="0.3" />
  
  <!-- Title -->
  <text x="400" y="320" font-family="Arial, sans-serif" font-size="24" font-weight="bold" text-anchor="middle" fill="#1e40af">Networking Event Checklist</text>
  <text x="400" y="350" font-family="Arial, sans-serif" font-size="16" text-anchor="middle" fill="#1e40af">Be Prepared for Every Opportunity</text>
</svg> 