<?xml version="1.0" encoding="UTF-8"?>
<svg width="800px" height="500px" viewBox="0 0 800 500" version="1.1" xmlns="http://www.w3.org/2000/svg">
    <title>United States Map</title>
    <g stroke="none" stroke-width="1" fill="none" fill-rule="evenodd">
        <!-- Continental US outline -->
        <path d="M155,135 C155,135 167,120 178,115 C189,110 200,105 215,105 C230,105 245,110 260,115 C275,120 290,125 305,130 C320,135 335,140 350,145 C365,150 380,155 395,160 C410,165 425,170 440,175 C455,180 470,185 485,190 C500,195 515,200 530,205 C545,210 560,215 575,220 C590,225 605,230 620,235 C635,240 650,245 665,250 C680,255 695,260 710,265 C725,270 740,275 755,280 C770,285 785,290 800,295 C800,295 800,350 800,350 C800,350 785,355 770,360 C755,365 740,370 725,375 C710,380 695,385 680,390 C665,395 650,400 635,405 C620,410 605,415 590,420 C575,425 560,430 545,435 C530,440 515,445 500,450 C485,455 470,460 455,465 C440,470 425,475 410,480 C395,485 380,490 365,495 C350,500 335,505 320,510 C305,515 290,520 275,525 C260,530 245,535 230,540 C215,545 200,550 185,555 C170,560 155,565 140,570 C125,575 110,580 95,585 C80,590 65,595 50,600 C50,600 50,545 50,545 C50,545 65,540 80,535 C95,530 110,525 125,520 C140,515 155,510 170,505 C185,500 200,495 215,490 C230,485 245,480 260,475 C275,470 290,465 305,460 C320,455 335,450 350,445 C365,440 380,435 395,430 C410,425 425,420 440,415 C455,410 470,405 485,400 C500,395 515,390 530,385 C545,380 560,375 575,370 C590,365 605,360 620,355 C635,350 650,345 665,340 C680,335 695,330 710,325 C725,320 740,315 755,310 C770,305 785,300 800,295 C800,295 800,295 800,295 C800,295 785,290 770,285 C755,280 740,275 725,270 C710,265 695,260 680,255 C665,250 650,245 635,240 C620,235 605,230 590,225 C575,220 560,215 545,210 C530,205 515,200 500,195 C485,190 470,185 455,180 C440,175 425,170 410,165 C395,160 380,155 365,150 C350,145 335,140 320,135 C305,130 290,125 275,120 C260,115 245,110 230,105 C215,100 200,95 185,90 C170,85 155,80 140,75 C125,70 110,65 95,60 C80,55 65,50 50,45 C50,45 50,100 50,100 C50,100 65,105 80,110 C95,115 110,120 125,125 C140,130 155,135 155,135 Z" fill="#3B82F6" fill-rule="nonzero" opacity="0.2"></path>
        
        <!-- Alaska outline -->
        <path d="M50,350 C50,350 65,345 80,340 C95,335 110,330 125,325 C140,320 155,315 170,310 C185,305 200,300 215,295 C230,290 245,285 260,280 C275,275 290,270 305,265 C320,260 335,255 350,250 C365,245 380,240 395,235 C410,230 425,225 440,220 C455,215 470,210 485,205 C500,200 515,195 530,190 C545,185 560,180 575,175 C590,170 605,165 620,160 C635,155 650,150 665,145 C680,140 695,135 710,130 C725,125 740,120 755,115 C770,110 785,105 800,100 C800,100 800,155 800,155 C800,155 785,160 770,165 C755,170 740,175 725,180 C710,185 695,190 680,195 C665,200 650,205 635,210 C620,215 605,220 590,225 C575,230 560,235 545,240 C530,245 515,250 500,255 C485,260 470,265 455,270 C440,275 425,280 410,285 C395,290 380,295 365,300 C350,305 335,310 320,315 C305,320 290,325 275,330 C260,335 245,340 230,345 C215,350 200,355 185,360 C170,365 155,370 140,375 C125,380 110,385 95,390 C80,395 65,400 50,405 C50,405 50,350 50,350 Z" fill="#3B82F6" fill-rule="nonzero" opacity="0.2"></path>
        
        <!-- Hawaii outline -->
        <path d="M200,400 C200,400 215,395 230,390 C245,385 260,380 275,375 C290,370 305,365 320,360 C335,355 350,350 365,345 C380,340 395,335 410,330 C425,325 440,320 455,315 C470,310 485,305 500,300 C515,295 530,290 545,285 C560,280 575,275 590,270 C605,265 620,260 635,255 C650,250 665,245 680,240 C695,235 710,230 725,225 C740,220 755,215 770,210 C785,205 800,200 800,200 C800,200 800,255 800,255 C800,255 785,260 770,265 C755,270 740,275 725,280 C710,285 695,290 680,295 C665,300 650,305 650,305 C650,305 650,250 650,250 Z" fill="#3B82F6" fill-rule="nonzero" opacity="0.2"></path>
        
        <!-- Highlight North Carolina -->
        <path d="M650,250 C650,250 665,245 680,240 C695,235 710,230 725,225 C740,220 755,215 770,210 C785,205 800,200 800,200 C800,200 800,255 800,255 C800,255 785,260 770,265 C755,270 740,275 725,280 C710,285 695,290 680,295 C665,300 650,305 650,305 C650,305 650,250 650,250 Z" fill="#3B82F6" fill-rule="nonzero" opacity="0.5"></path>
        
        <!-- Dots for major cities -->
        <circle cx="200" cy="150" r="5" fill="#3B82F6"></circle> <!-- Seattle -->
        <circle cx="150" cy="200" r="5" fill="#3B82F6"></circle> <!-- San Francisco -->
        <circle cx="175" cy="250" r="5" fill="#3B82F6"></circle> <!-- Los Angeles -->
        <circle cx="250" cy="275" r="5" fill="#3B82F6"></circle> <!-- Phoenix -->
        <circle cx="300" cy="225" r="5" fill="#3B82F6"></circle> <!-- Denver -->
        <circle cx="350" cy="275" r="5" fill="#3B82F6"></circle> <!-- Dallas -->
        <circle cx="375" cy="325" r="5" fill="#3B82F6"></circle> <!-- Houston -->
        <circle cx="425" cy="250" r="5" fill="#3B82F6"></circle> <!-- Chicago -->
        <circle cx="500" cy="225" r="5" fill="#3B82F6"></circle> <!-- Detroit -->
        <circle cx="550" cy="275" r="5" fill="#3B82F6"></circle> <!-- Atlanta -->
        <circle cx="600" cy="225" r="5" fill="#3B82F6"></circle> <!-- Washington DC -->
        <circle cx="625" cy="200" r="5" fill="#3B82F6"></circle> <!-- New York -->
        <circle cx="650" cy="175" r="5" fill="#3B82F6"></circle> <!-- Boston -->
        <circle cx="575" cy="250" r="5" fill="#3B82F6"></circle> <!-- Charlotte -->
        <circle cx="550" cy="325" r="5" fill="#3B82F6"></circle> <!-- Miami -->
        
        <!-- North Carolina label -->
        <text x="575" y="270" font-family="Arial" font-size="12" fill="#3B82F6" font-weight="bold">North Carolina</text>
        <text x="575" y="285" font-family="Arial" font-size="10" fill="#3B82F6">Available Now!</text>
    </g>
</svg> 